<?xml version="1.0" encoding="utf-8"?>
<!-- Generator: Adobe Illustrator 19.0.0, SVG Export Plug-In . SVG Version: 6.00 Build 0)  -->
<svg version="1.1" id="Layer_1" xmlns="http://www.w3.org/2000/svg" xmlns:xlink="http://www.w3.org/1999/xlink" x="0px" y="0px"
	 viewBox="0 0 300 115.3" style="enable-background:new 0 0 300 115.3;" xml:space="preserve">
<g id="XMLID_1_">
	<g id="XMLID_52_">
		<path id="XMLID_84_" d="M26,38.3c-0.3,0-0.5-0.2-0.5-0.5V26H12.4v11.8c0,0.3-0.2,0.5-0.5,0.5h-7c-0.3,0-0.5-0.2-0.5-0.5V6.6
			c0-0.3,0.2-0.5,0.5-0.5h7c0.3,0,0.5,0.2,0.5,0.5v12.5h13.1V6.6c0-0.3,0.2-0.5,0.5-0.5h7c0.3,0,0.5,0.2,0.5,0.5v31.2
			c0,0.3-0.2,0.5-0.5,0.5H26z"/>
		<path id="XMLID_80_" d="M33,6.6v31.2h-7V25.5H11.9v12.3h-7V6.6h7v13H26v-13H33 M33,5.6h-7c-0.6,0-1,0.4-1,1v12H12.9v-12
			c0-0.6-0.4-1-1-1h-7c-0.6,0-1,0.4-1,1v31.2c0,0.6,0.4,1,1,1h7c0.6,0,1-0.4,1-1V26.5H25v11.3c0,0.6,0.4,1,1,1h7c0.6,0,1-0.4,1-1
			V6.6C34,6.1,33.6,5.6,33,5.6L33,5.6z"/>
	</g>
	<g id="XMLID_50_">
		<path id="XMLID_79_" d="M57.4,38.6c-8.9,0-14.6-5.4-14.6-13.8V6.6c0-0.3,0.2-0.5,0.5-0.5h7c0.3,0,0.5,0.2,0.5,0.5v18.1
			c0,4.1,2.6,6.7,6.6,6.7c4,0,6.4-2.6,6.4-6.7V6.6c0-0.3,0.2-0.5,0.5-0.5h7c0.3,0,0.5,0.2,0.5,0.5v18.1
			C71.9,33.3,66.3,38.6,57.4,38.6z"/>
		<path id="XMLID_75_" d="M71.4,6.6v18.1c0,8.2-5.4,13.3-14,13.3c-8.6,0-14.1-5.1-14.1-13.3V6.6h7v18.1c0,4.5,2.9,7.2,7.1,7.2
			c4.2,0,6.9-2.7,6.9-7.2V6.6H71.4 M71.4,5.6h-7c-0.6,0-1,0.4-1,1v18.1c0,3.9-2.2,6.2-5.9,6.2c-3.8,0-6.1-2.4-6.1-6.2V6.6
			c0-0.6-0.4-1-1-1h-7c-0.6,0-1,0.4-1,1v18.1c0,8.7,5.9,14.3,15.1,14.3c9.1,0,15-5.6,15-14.3V6.6C72.4,6.1,71.9,5.6,71.4,5.6
			L71.4,5.6z"/>
	</g>
	<g id="XMLID_48_">
		<path id="XMLID_74_" d="M103.5,38.3c-0.2,0-0.3-0.1-0.4-0.2L88.9,19.3v18.5c0,0.3-0.2,0.5-0.5,0.5h-6.7c-0.3,0-0.5-0.2-0.5-0.5
			V6.6c0-0.3,0.2-0.5,0.5-0.5h6.4c0.2,0,0.3,0.1,0.4,0.2l14.2,18.8V6.6c0-0.3,0.2-0.5,0.5-0.5h6.7c0.3,0,0.5,0.2,0.5,0.5v31.2
			c0,0.3-0.2,0.5-0.5,0.5H103.5z"/>
		<path id="XMLID_71_" d="M109.9,6.6v31.2h-6.4l-15.1-20v20h-6.7V6.6h6.4l15.1,20v-20H109.9 M109.9,5.6h-6.7c-0.6,0-1,0.4-1,1v17
			L88.9,6c-0.2-0.3-0.5-0.4-0.8-0.4h-6.4c-0.6,0-1,0.4-1,1v31.2c0,0.6,0.4,1,1,1h6.7c0.6,0,1-0.4,1-1v-17l13.3,17.6
			c0.2,0.3,0.5,0.4,0.8,0.4h6.4c0.6,0,1-0.4,1-1V6.6C110.9,6.1,110.4,5.6,109.9,5.6L109.9,5.6z"/>
	</g>
	<g id="XMLID_46_">
		<path id="XMLID_70_" d="M135.1,38.6c-9.7,0-17.1-7-17.1-16.4c0-9.3,7.5-16.3,17.5-16.3c4.6,0,9.5,1.8,12.8,4.7
			c0.2,0.2,0.2,0.5,0.1,0.7l-4,5c-0.1,0.1-0.2,0.2-0.4,0.2c0,0,0,0,0,0c-0.1,0-0.2,0-0.3-0.1c-2.3-2.1-5.3-3.3-8.2-3.3
			c-5.2,0-9.3,4-9.3,9.2c0,5.2,4.1,9.2,9.3,9.2c1.6,0,3.6-0.5,5.6-1.5V22c0-0.3,0.2-0.5,0.5-0.5h6.1c0.3,0,0.5,0.2,0.5,0.5v12
			c0,0.2-0.1,0.3-0.2,0.4C144.6,36.9,139.4,38.6,135.1,38.6z"/>
		<path id="XMLID_67_" d="M135.5,6.4c4.6,0,9.3,1.8,12.5,4.5l-4,5c-2.3-2.1-5.5-3.5-8.5-3.5c-5.5,0-9.8,4.2-9.8,9.7
			c0,5.5,4.3,9.7,9.8,9.7c1.9,0,4.1-0.7,6.1-1.7V22h6.1v12c-3.3,2.4-8.3,4-12.6,4c-9.4,0-16.6-6.9-16.6-15.9
			C118.5,13.2,125.8,6.4,135.5,6.4 M135.5,5.4c-10.3,0-18,7.2-18,16.8c0,9.6,7.6,16.9,17.6,16.9c4.5,0,9.7-1.7,13.2-4.2
			c0.3-0.2,0.4-0.5,0.4-0.8V22c0-0.6-0.4-1-1-1h-6.1c-0.6,0-1,0.4-1,1v7.6c-1.8,0.8-3.6,1.3-5.1,1.3c-5,0-8.8-3.8-8.8-8.7
			c0-4.9,3.9-8.7,8.8-8.7c2.8,0,5.7,1.2,7.9,3.2c0.2,0.2,0.4,0.3,0.7,0.3c0,0,0.1,0,0.1,0c0.3,0,0.5-0.2,0.7-0.4l4-5
			c0.3-0.4,0.3-1-0.1-1.4C145.2,7.2,140.3,5.4,135.5,5.4L135.5,5.4z"/>
	</g>
	<g id="XMLID_43_">
		<path id="XMLID_103_" d="M177,38.3c-0.2,0-0.3-0.1-0.4-0.3l-4.8-8.6h-6.4v8.4c0,0.3-0.2,0.5-0.5,0.5h-7c-0.3,0-0.5-0.2-0.5-0.5
			V6.6c0-0.3,0.2-0.5,0.5-0.5h13.5c8.4,0,13.3,4.1,13.3,11.3c0,4.8-1.9,8.3-5.6,10.3l6.3,9.8c0.1,0.2,0.1,0.3,0,0.5
			c-0.1,0.2-0.3,0.3-0.4,0.3H177z M171.4,22.5c3.7,0,5.6-1.6,5.6-4.8c0-3.1-1.9-4.7-5.6-4.7h-6v9.5H171.4z"/>
		<path id="XMLID_97_" d="M171.4,6.6c8.1,0,12.8,3.9,12.8,10.8c0,4.8-2,8.3-5.8,10.1l6.6,10.3h-8l-4.9-8.9h-0.7h-6.5v8.9h-7V6.6
			H171.4 M164.9,23h6.5c3.9,0,6.1-1.8,6.1-5.3c0-3.5-2.2-5.2-6.1-5.2h-6.5V23 M171.4,5.6h-13.5c-0.6,0-1,0.4-1,1v31.2
			c0,0.6,0.4,1,1,1h7c0.6,0,1-0.4,1-1v-7.9h5.5h0.1l4.7,8.4c0.2,0.3,0.5,0.5,0.9,0.5h8c0.4,0,0.7-0.2,0.9-0.5c0.2-0.3,0.2-0.7,0-1
			l-6-9.4c3.5-2.1,5.4-5.7,5.4-10.4C185.1,9.9,180.1,5.6,171.4,5.6L171.4,5.6z M165.9,13.4h5.5c3.4,0,5.1,1.4,5.1,4.2
			c0,2.9-1.7,4.3-5.1,4.3h-5.5V13.4L165.9,13.4z"/>
	</g>
	<g id="XMLID_41_">
		<path id="XMLID_65_" d="M201.7,38.3c-0.3,0-0.5-0.2-0.5-0.5V28L189.7,6.8c-0.1-0.2-0.1-0.3,0-0.5s0.3-0.2,0.4-0.2h7.1
			c0.2,0,0.3,0.1,0.4,0.3l7.5,13.2l7.4-13.2c0.1-0.2,0.3-0.3,0.4-0.3h7.1c0.2,0,0.3,0.1,0.4,0.2c0.1,0.2,0.1,0.3,0,0.5l-11.3,21v9.9
			c0,0.3-0.2,0.5-0.5,0.5H201.7z"/>
		<path id="XMLID_62_" d="M220.1,6.6l-11.3,21.1v10.1h-7v-9.9L190.2,6.6h7.1l8,14l7.8-14H220.1 M220.1,5.6H213
			c-0.4,0-0.7,0.2-0.9,0.5l-6.9,12.4l-7.1-12.4c-0.2-0.3-0.5-0.5-0.9-0.5h-7.1c-0.4,0-0.7,0.2-0.9,0.5c-0.2,0.3-0.2,0.7,0,1l11.4,21
			v9.6c0,0.6,0.4,1,1,1h7c0.6,0,1-0.4,1-1V28L221,7.1c0.2-0.3,0.2-0.7,0-1S220.4,5.6,220.1,5.6L220.1,5.6z"/>
	</g>
	<g id="XMLID_38_">
		<path id="XMLID_61_" d="M51.5,109c-0.3,0-0.5-0.2-0.5-0.5l-0.1-32.3l-11.8,27.2c-0.1,0.2-0.3,0.3-0.5,0.3h-8.8
			c-0.2,0-0.4-0.1-0.5-0.3L17.5,76.2v32.3c0,0.3-0.2,0.5-0.5,0.5H4.8c-0.3,0-0.5-0.2-0.5-0.5V55.1c0-0.3,0.2-0.5,0.5-0.5h14.9
			c0.2,0,0.4,0.1,0.5,0.3l14,30.8l14-30.8c0.1-0.2,0.3-0.3,0.5-0.3h14.8c0.3,0,0.5,0.2,0.5,0.5v53.4c0,0.3-0.2,0.5-0.5,0.5H51.5z"/>
		<path id="XMLID_57_" d="M63.4,55.1v53.4h-12l-0.1-34.7l-12.8,29.3h-8.8L17,73.8v34.7H4.8V55.1h14.9l14.5,31.8l14.5-31.8H63.4
			 M63.4,54.1H48.7c-0.4,0-0.7,0.2-0.9,0.6L34.2,84.4L20.6,54.7c-0.2-0.4-0.5-0.6-0.9-0.6H4.8c-0.6,0-1,0.4-1,1v53.4
			c0,0.6,0.4,1,1,1H17c0.6,0,1-0.4,1-1V78.6l10.9,24.9c0.2,0.4,0.5,0.6,0.9,0.6h8.8c0.4,0,0.8-0.2,0.9-0.6l10.9-25l0.1,29.9
			c0,0.6,0.4,1,1,1h12c0.6,0,1-0.4,1-1V55.1C64.4,54.5,64,54.1,63.4,54.1L63.4,54.1z"/>
	</g>
	<g id="XMLID_36_">
		<path id="XMLID_56_" d="M83.4,109c-0.3,0-0.5-0.2-0.5-0.5V55.2c0-0.3,0.2-0.5,0.5-0.5h13.6c0.3,0,0.5,0.2,0.5,0.5v53.3
			c0,0.3-0.2,0.5-0.5,0.5H83.4z"/>
		<path id="XMLID_28_" d="M96.9,55.2v53.3H83.4V55.2H96.9 M96.9,54.2H83.4c-0.6,0-1,0.4-1,1v53.3c0,0.6,0.4,1,1,1h13.6
			c0.6,0,1-0.4,1-1V55.2C97.9,54.6,97.5,54.2,96.9,54.2L96.9,54.2z"/>
	</g>
	<g id="XMLID_34_">
		<path id="XMLID_66_" d="M154,109c-0.2,0-0.3-0.1-0.4-0.2L130,77.2v31.3c0,0.3-0.2,0.5-0.5,0.5h-12.7c-0.3,0-0.5-0.2-0.5-0.5V55.2
			c0-0.3,0.2-0.5,0.5-0.5h12c0.2,0,0.3,0.1,0.4,0.2l23.7,31.7V55.2c0-0.3,0.2-0.5,0.5-0.5H166c0.3,0,0.5,0.2,0.5,0.5v53.3
			c0,0.3-0.2,0.5-0.5,0.5H154z"/>
		<path id="XMLID_26_" d="M166,55.2v53.3h-12l-24.5-32.8v32.8h-12.7V55.2h12l24.6,32.9V55.2H166 M166,54.2h-12.7c-0.6,0-1,0.4-1,1
			v29.9l-22.8-30.5c-0.2-0.3-0.5-0.4-0.8-0.4h-12c-0.6,0-1,0.4-1,1v53.3c0,0.6,0.4,1,1,1h12.7c0.6,0,1-0.4,1-1V78.7l22.7,30.4
			c0.2,0.3,0.5,0.4,0.8,0.4h12c0.6,0,1-0.4,1-1V55.2C167,54.6,166.5,54.2,166,54.2L166,54.2z"/>
	</g>
	<g id="XMLID_31_">
		<path id="XMLID_111_" d="M185.8,109c-0.3,0-0.5-0.2-0.5-0.5V55.2c0-0.3,0.2-0.5,0.5-0.5h22.9c17,0,28.8,11.2,28.8,27.2
			c0,16-12.1,27.2-29.4,27.2H185.8z M209.1,97.2c8.1,0,13.7-6.3,13.7-15.3c0-9.1-5.9-15.4-14.4-15.4h-8.6v30.7H209.1z"/>
		<path id="XMLID_106_" d="M208.8,55.2c16.8,0,28.3,10.8,28.3,26.7c0,15.8-11.7,26.7-28.9,26.7h-22.4V55.2H208.8 M199.4,97.7h9.7
			c8.3,0,14.2-6.4,14.2-15.8c0-9.4-6.2-15.9-14.9-15.9h-9.1V97.7 M208.8,54.2h-22.9c-0.6,0-1,0.4-1,1v53.3c0,0.6,0.4,1,1,1h22.4
			c17.6,0,29.9-11.4,29.9-27.7S226.1,54.2,208.8,54.2L208.8,54.2z M200.4,67h8.1c8.2,0,13.9,6.1,13.9,14.9c0,8.7-5.4,14.8-13.2,14.8
			h-8.7V67L200.4,67z"/>
	</g>
	<g id="XMLID_29_">
		<path id="XMLID_95_" d="M273.8,109.4c-8.9,0-18.1-3.2-24.7-8.6c-0.2-0.1-0.2-0.4-0.1-0.6l5.3-10.4c0.1-0.1,0.2-0.2,0.4-0.3
			c0,0,0.1,0,0.1,0c0.1,0,0.2,0,0.3,0.1c5.1,4.5,13.3,7.9,19,7.9c4.1,0,6.4-1.5,6.4-4.1c0-3.5-4.7-4.8-10.1-6.3
			c-8-2.2-18.1-4.9-18.1-16.4c0-10.1,8.5-16.6,21.8-16.6c7.6,0,15.5,2.3,21.3,6c0.2,0.1,0.3,0.4,0.2,0.6l-5.1,10.6
			c-0.1,0.1-0.2,0.2-0.3,0.3c0,0-0.1,0-0.1,0c-0.1,0-0.2,0-0.3-0.1c-5.5-3.2-12.6-5.5-16.8-5.5c-1.6,0-5.4,0.3-5.4,3.4
			c0,3.4,4.6,4.7,9.9,6.2c8.1,2.3,18.3,5.2,18.3,17C295.7,102.9,287.1,109.4,273.8,109.4z"/>
		<path id="XMLID_76_" d="M274,54.5c7.7,0,15.5,2.4,21,5.9l-5.1,10.6c-5.6-3.3-12.7-5.6-17.1-5.6c-3.5,0-5.9,1.3-5.9,3.9
			c0,9.2,28.2,4,28.2,23.2c0,10.7-9.4,16.3-21.3,16.3c-8.9,0-18.1-3.4-24.4-8.5l5.3-10.4c5.5,4.8,13.7,8,19.3,8
			c4.3,0,6.9-1.6,6.9-4.6c0-9.4-28.2-3.8-28.2-22.7C252.7,60.8,261.2,54.5,274,54.5 M274,53.5c-13.5,0-22.3,6.7-22.3,17.1
			c0,11.8,10.2,14.6,18.4,16.9c5.2,1.4,9.8,2.7,9.8,5.8c0,3.2-3.7,3.6-5.9,3.6c-5.6,0-13.6-3.3-18.6-7.8c-0.2-0.2-0.4-0.2-0.7-0.2
			c-0.1,0-0.1,0-0.2,0c-0.3,0.1-0.6,0.3-0.7,0.5l-5.3,10.4c-0.2,0.4-0.1,0.9,0.3,1.2c6.7,5.5,16,8.8,25,8.8
			c13.6,0,22.3-6.8,22.3-17.3c0-12.1-10.3-15.1-18.6-17.5c-5.1-1.5-9.6-2.7-9.6-5.8c0-2.5,3-2.9,4.9-2.9c4.2,0,11.2,2.3,16.6,5.4
			c0.2,0.1,0.3,0.1,0.5,0.1c0.1,0,0.2,0,0.3,0c0.3-0.1,0.5-0.3,0.6-0.5l5.1-10.6c0.2-0.5,0.1-1-0.4-1.3
			C289.7,55.8,281.6,53.5,274,53.5L274,53.5z"/>
	</g>
</g>
</svg>
